<mxfile host="app.diagrams.net" modified="2022-10-05T09:23:42.321Z" agent="5.0 (Windows NT 10.0; Win64; x64) AppleWebKit/537.36 (KHTML, like Gecko) Chrome/105.0.0.0 Safari/537.36" etag="E-P6Aqc4cPR-GyCMPSY0" version="20.4.0" type="github">
  <diagram name="Page-1" id="c37626ed-c26b-45fb-9056-f9ebc6bb27b6">
    <mxGraphModel dx="2700" dy="944" grid="1" gridSize="10" guides="1" tooltips="1" connect="1" arrows="1" fold="1" page="1" pageScale="1" pageWidth="1100" pageHeight="850" background="none" math="0" shadow="0">
      <root>
        <mxCell id="0" />
        <mxCell id="1" parent="0" />
        <mxCell id="eb7Oq8lSXdmzX0vG2ROj-12" style="edgeStyle=orthogonalEdgeStyle;rounded=0;orthogonalLoop=1;jettySize=auto;html=1;exitX=0.995;exitY=0.63;exitDx=0;exitDy=0;exitPerimeter=0;entryX=0.005;entryY=0.63;entryDx=0;entryDy=0;entryPerimeter=0;" edge="1" parent="1" source="eb7Oq8lSXdmzX0vG2ROj-2" target="eb7Oq8lSXdmzX0vG2ROj-3">
          <mxGeometry relative="1" as="geometry" />
        </mxCell>
        <mxCell id="eb7Oq8lSXdmzX0vG2ROj-2" value="" style="sketch=0;html=1;dashed=0;whitespace=wrap;fillColor=#2875E2;strokeColor=#ffffff;points=[[0.005,0.63,0],[0.1,0.2,0],[0.9,0.2,0],[0.5,0,0],[0.995,0.63,0],[0.72,0.99,0],[0.5,1,0],[0.28,0.99,0]];shape=mxgraph.kubernetes.icon;prIcon=ing" vertex="1" parent="1">
          <mxGeometry x="380" y="124" width="50" height="48" as="geometry" />
        </mxCell>
        <mxCell id="eb7Oq8lSXdmzX0vG2ROj-13" style="edgeStyle=orthogonalEdgeStyle;rounded=0;orthogonalLoop=1;jettySize=auto;html=1;entryX=0.005;entryY=0.63;entryDx=0;entryDy=0;entryPerimeter=0;dashed=1;" edge="1" parent="1" source="eb7Oq8lSXdmzX0vG2ROj-3" target="eb7Oq8lSXdmzX0vG2ROj-8">
          <mxGeometry relative="1" as="geometry" />
        </mxCell>
        <mxCell id="eb7Oq8lSXdmzX0vG2ROj-14" style="edgeStyle=orthogonalEdgeStyle;rounded=0;orthogonalLoop=1;jettySize=auto;html=1;dashed=1;entryX=0.005;entryY=0.63;entryDx=0;entryDy=0;entryPerimeter=0;" edge="1" parent="1" source="eb7Oq8lSXdmzX0vG2ROj-3" target="eb7Oq8lSXdmzX0vG2ROj-10">
          <mxGeometry relative="1" as="geometry">
            <mxPoint x="670" y="141" as="targetPoint" />
          </mxGeometry>
        </mxCell>
        <mxCell id="eb7Oq8lSXdmzX0vG2ROj-15" style="edgeStyle=orthogonalEdgeStyle;rounded=0;orthogonalLoop=1;jettySize=auto;html=1;entryX=0.005;entryY=0.63;entryDx=0;entryDy=0;entryPerimeter=0;dashed=1;" edge="1" parent="1" source="eb7Oq8lSXdmzX0vG2ROj-3" target="eb7Oq8lSXdmzX0vG2ROj-11">
          <mxGeometry relative="1" as="geometry" />
        </mxCell>
        <mxCell id="eb7Oq8lSXdmzX0vG2ROj-3" value="" style="sketch=0;html=1;dashed=0;whitespace=wrap;fillColor=#2875E2;strokeColor=#ffffff;points=[[0.005,0.63,0],[0.1,0.2,0],[0.9,0.2,0],[0.5,0,0],[0.995,0.63,0],[0.72,0.99,0],[0.5,1,0],[0.28,0.99,0]];shape=mxgraph.kubernetes.icon;prIcon=svc" vertex="1" parent="1">
          <mxGeometry x="680" y="124" width="50" height="48" as="geometry" />
        </mxCell>
        <mxCell id="eb7Oq8lSXdmzX0vG2ROj-17" style="edgeStyle=orthogonalEdgeStyle;rounded=0;orthogonalLoop=1;jettySize=auto;html=1;entryX=0.005;entryY=0.63;entryDx=0;entryDy=0;entryPerimeter=0;" edge="1" parent="1" target="eb7Oq8lSXdmzX0vG2ROj-2">
          <mxGeometry relative="1" as="geometry">
            <mxPoint x="120" y="154" as="sourcePoint" />
          </mxGeometry>
        </mxCell>
        <mxCell id="eb7Oq8lSXdmzX0vG2ROj-6" value="" style="sketch=0;aspect=fixed;pointerEvents=1;shadow=0;dashed=0;html=1;strokeColor=none;labelPosition=center;verticalLabelPosition=bottom;verticalAlign=top;align=center;fillColor=#00188D;shape=mxgraph.mscae.enterprise.client_application" vertex="1" parent="1">
          <mxGeometry x="60" y="132" width="50" height="32" as="geometry" />
        </mxCell>
        <mxCell id="eb7Oq8lSXdmzX0vG2ROj-8" value="" style="sketch=0;html=1;dashed=0;whitespace=wrap;fillColor=#2875E2;strokeColor=#ffffff;points=[[0.005,0.63,0],[0.1,0.2,0],[0.9,0.2,0],[0.5,0,0],[0.995,0.63,0],[0.72,0.99,0],[0.5,1,0],[0.28,0.99,0]];shape=mxgraph.kubernetes.icon;prIcon=pod" vertex="1" parent="1">
          <mxGeometry x="940" y="48" width="50" height="48" as="geometry" />
        </mxCell>
        <mxCell id="eb7Oq8lSXdmzX0vG2ROj-10" value="" style="sketch=0;html=1;dashed=0;whitespace=wrap;fillColor=#2875E2;strokeColor=#ffffff;points=[[0.005,0.63,0],[0.1,0.2,0],[0.9,0.2,0],[0.5,0,0],[0.995,0.63,0],[0.72,0.99,0],[0.5,1,0],[0.28,0.99,0]];shape=mxgraph.kubernetes.icon;prIcon=pod" vertex="1" parent="1">
          <mxGeometry x="940" y="116" width="50" height="48" as="geometry" />
        </mxCell>
        <mxCell id="eb7Oq8lSXdmzX0vG2ROj-11" value="" style="sketch=0;html=1;dashed=0;whitespace=wrap;fillColor=#2875E2;strokeColor=#ffffff;points=[[0.005,0.63,0],[0.1,0.2,0],[0.9,0.2,0],[0.5,0,0],[0.995,0.63,0],[0.72,0.99,0],[0.5,1,0],[0.28,0.99,0]];shape=mxgraph.kubernetes.icon;prIcon=pod" vertex="1" parent="1">
          <mxGeometry x="940" y="188" width="50" height="48" as="geometry" />
        </mxCell>
        <mxCell id="eb7Oq8lSXdmzX0vG2ROj-18" value="&lt;span style=&quot;font-weight: normal;&quot;&gt;get https://webconverter-main.aks-service.k.eod.systems&lt;/span&gt;" style="text;html=1;align=center;verticalAlign=middle;resizable=0;points=[];autosize=1;strokeColor=none;fillColor=none;fontStyle=1" vertex="1" parent="1">
          <mxGeometry x="80" y="94" width="330" height="30" as="geometry" />
        </mxCell>
        <mxCell id="eb7Oq8lSXdmzX0vG2ROj-19" value="&lt;b&gt;Routing rule&lt;br&gt;to&lt;br&gt;virtual host&lt;br&gt;&lt;/b&gt;webconverter-main.aks-service.k.eod.systems&lt;b&gt;&lt;br&gt;&lt;/b&gt;" style="text;html=1;align=center;verticalAlign=middle;resizable=0;points=[];autosize=1;strokeColor=none;fillColor=none;" vertex="1" parent="1">
          <mxGeometry x="420" y="80" width="270" height="70" as="geometry" />
        </mxCell>
        <mxCell id="eb7Oq8lSXdmzX0vG2ROj-20" value="&lt;b&gt;Service&lt;/b&gt;&lt;br&gt;web-converter-test" style="text;html=1;align=center;verticalAlign=middle;resizable=0;points=[];autosize=1;strokeColor=none;fillColor=none;" vertex="1" parent="1">
          <mxGeometry x="645" y="180" width="120" height="40" as="geometry" />
        </mxCell>
        <mxCell id="eb7Oq8lSXdmzX0vG2ROj-21" value="&lt;b&gt;Ingress&lt;/b&gt;" style="text;html=1;align=center;verticalAlign=middle;resizable=0;points=[];autosize=1;strokeColor=none;fillColor=none;" vertex="1" parent="1">
          <mxGeometry x="370" y="185" width="70" height="30" as="geometry" />
        </mxCell>
        <mxCell id="eb7Oq8lSXdmzX0vG2ROj-22" value="&lt;b&gt;Pod&lt;/b&gt;" style="text;html=1;align=center;verticalAlign=middle;resizable=0;points=[];autosize=1;strokeColor=none;fillColor=none;" vertex="1" parent="1">
          <mxGeometry x="1000" y="57" width="50" height="30" as="geometry" />
        </mxCell>
        <mxCell id="eb7Oq8lSXdmzX0vG2ROj-23" value="&lt;b&gt;Pod&lt;/b&gt;" style="text;html=1;align=center;verticalAlign=middle;resizable=0;points=[];autosize=1;strokeColor=none;fillColor=none;" vertex="1" parent="1">
          <mxGeometry x="1000" y="124" width="50" height="30" as="geometry" />
        </mxCell>
        <mxCell id="eb7Oq8lSXdmzX0vG2ROj-24" value="&lt;b&gt;Pod&lt;/b&gt;" style="text;html=1;align=center;verticalAlign=middle;resizable=0;points=[];autosize=1;strokeColor=none;fillColor=none;" vertex="1" parent="1">
          <mxGeometry x="1000" y="197" width="50" height="30" as="geometry" />
        </mxCell>
        <mxCell id="eb7Oq8lSXdmzX0vG2ROj-25" value="&lt;b&gt;Client app&lt;/b&gt;" style="text;html=1;align=center;verticalAlign=middle;resizable=0;points=[];autosize=1;strokeColor=none;fillColor=none;" vertex="1" parent="1">
          <mxGeometry x="45" y="185" width="80" height="30" as="geometry" />
        </mxCell>
        <mxCell id="eb7Oq8lSXdmzX0vG2ROj-44" style="edgeStyle=orthogonalEdgeStyle;rounded=0;orthogonalLoop=1;jettySize=auto;html=1;exitX=0.005;exitY=0.63;exitDx=0;exitDy=0;exitPerimeter=0;entryX=0.995;entryY=0.63;entryDx=0;entryDy=0;entryPerimeter=0;dashed=1;" edge="1" parent="1" source="eb7Oq8lSXdmzX0vG2ROj-26" target="eb7Oq8lSXdmzX0vG2ROj-42">
          <mxGeometry relative="1" as="geometry" />
        </mxCell>
        <mxCell id="eb7Oq8lSXdmzX0vG2ROj-26" value="" style="sketch=0;html=1;dashed=0;whitespace=wrap;fillColor=#2875E2;strokeColor=#ffffff;points=[[0.005,0.63,0],[0.1,0.2,0],[0.9,0.2,0],[0.5,0,0],[0.995,0.63,0],[0.72,0.99,0],[0.5,1,0],[0.28,0.99,0]];shape=mxgraph.kubernetes.icon;prIcon=ing" vertex="1" parent="1">
          <mxGeometry x="240" y="630" width="90" height="80" as="geometry" />
        </mxCell>
        <mxCell id="eb7Oq8lSXdmzX0vG2ROj-32" style="edgeStyle=orthogonalEdgeStyle;rounded=0;orthogonalLoop=1;jettySize=auto;html=1;" edge="1" parent="1" source="eb7Oq8lSXdmzX0vG2ROj-27" target="eb7Oq8lSXdmzX0vG2ROj-62">
          <mxGeometry relative="1" as="geometry">
            <mxPoint x="700" y="426.4705882352944" as="targetPoint" />
          </mxGeometry>
        </mxCell>
        <mxCell id="eb7Oq8lSXdmzX0vG2ROj-36" style="edgeStyle=orthogonalEdgeStyle;rounded=0;orthogonalLoop=1;jettySize=auto;html=1;exitX=0.5;exitY=1;exitDx=0;exitDy=0;dashed=1;entryX=0.9;entryY=0.2;entryDx=0;entryDy=0;entryPerimeter=0;" edge="1" parent="1" source="eb7Oq8lSXdmzX0vG2ROj-27" target="eb7Oq8lSXdmzX0vG2ROj-26">
          <mxGeometry relative="1" as="geometry" />
        </mxCell>
        <mxCell id="eb7Oq8lSXdmzX0vG2ROj-27" value="" style="shape=image;verticalLabelPosition=bottom;labelBackgroundColor=default;verticalAlign=top;aspect=fixed;imageAspect=0;image=https://raw.githubusercontent.com/kubernetes-sigs/external-dns/master/docs/img/external-dns.png;" vertex="1" parent="1">
          <mxGeometry x="370" y="363" width="125" height="125" as="geometry" />
        </mxCell>
        <mxCell id="eb7Oq8lSXdmzX0vG2ROj-35" style="edgeStyle=orthogonalEdgeStyle;rounded=0;orthogonalLoop=1;jettySize=auto;html=1;exitX=0.5;exitY=1;exitDx=0;exitDy=0;entryX=0.1;entryY=0.2;entryDx=0;entryDy=0;entryPerimeter=0;dashed=1;" edge="1" parent="1" source="eb7Oq8lSXdmzX0vG2ROj-28" target="eb7Oq8lSXdmzX0vG2ROj-26">
          <mxGeometry relative="1" as="geometry">
            <Array as="points">
              <mxPoint x="121" y="540" />
              <mxPoint x="249" y="540" />
            </Array>
          </mxGeometry>
        </mxCell>
        <mxCell id="eb7Oq8lSXdmzX0vG2ROj-50" style="edgeStyle=orthogonalEdgeStyle;rounded=0;orthogonalLoop=1;jettySize=auto;html=1;exitX=0.5;exitY=1;exitDx=0;exitDy=0;entryX=0.5;entryY=0;entryDx=0;entryDy=0;entryPerimeter=0;" edge="1" parent="1" source="eb7Oq8lSXdmzX0vG2ROj-28">
          <mxGeometry relative="1" as="geometry">
            <mxPoint x="-55" y="569.9999999999998" as="targetPoint" />
          </mxGeometry>
        </mxCell>
        <mxCell id="eb7Oq8lSXdmzX0vG2ROj-28" value="" style="shape=image;verticalLabelPosition=bottom;labelBackgroundColor=default;verticalAlign=top;aspect=fixed;imageAspect=0;image=https://cert-manager.io/images/cert-manager-logo-icon.svg;" vertex="1" parent="1">
          <mxGeometry x="80" y="375" width="82" height="82" as="geometry" />
        </mxCell>
        <mxCell id="eb7Oq8lSXdmzX0vG2ROj-37" value="&lt;b&gt;cert-manager&lt;/b&gt;" style="text;html=1;align=center;verticalAlign=middle;resizable=0;points=[];autosize=1;strokeColor=none;fillColor=none;" vertex="1" parent="1">
          <mxGeometry x="71" y="345" width="100" height="30" as="geometry" />
        </mxCell>
        <mxCell id="eb7Oq8lSXdmzX0vG2ROj-38" value="&lt;b&gt;external-dns&lt;/b&gt;" style="text;html=1;align=center;verticalAlign=middle;resizable=0;points=[];autosize=1;strokeColor=none;fillColor=none;" vertex="1" parent="1">
          <mxGeometry x="387.5" y="345" width="90" height="30" as="geometry" />
        </mxCell>
        <mxCell id="eb7Oq8lSXdmzX0vG2ROj-39" value="&lt;b&gt;Private DNS zone&lt;br&gt;&lt;/b&gt;aks-service.k.eod.systems&lt;b&gt;&lt;br&gt;&lt;/b&gt;" style="text;html=1;align=center;verticalAlign=middle;resizable=0;points=[];autosize=1;strokeColor=none;fillColor=none;" vertex="1" parent="1">
          <mxGeometry x="675" y="335" width="160" height="40" as="geometry" />
        </mxCell>
        <mxCell id="eb7Oq8lSXdmzX0vG2ROj-41" value="&lt;b&gt;Ingress&lt;br&gt;host:&amp;nbsp;&lt;/b&gt;webconverter-main.aks-service.k.eod.systems" style="text;html=1;align=center;verticalAlign=middle;resizable=0;points=[];autosize=1;strokeColor=none;fillColor=none;" vertex="1" parent="1">
          <mxGeometry x="135" y="720" width="300" height="40" as="geometry" />
        </mxCell>
        <mxCell id="eb7Oq8lSXdmzX0vG2ROj-71" style="edgeStyle=orthogonalEdgeStyle;rounded=0;orthogonalLoop=1;jettySize=auto;html=1;exitX=0.005;exitY=0.63;exitDx=0;exitDy=0;exitPerimeter=0;entryX=0.5;entryY=0.905;entryDx=0;entryDy=0;entryPerimeter=0;startArrow=classic;startFill=1;" edge="1" parent="1" source="eb7Oq8lSXdmzX0vG2ROj-42" target="eb7Oq8lSXdmzX0vG2ROj-70">
          <mxGeometry relative="1" as="geometry" />
        </mxCell>
        <mxCell id="eb7Oq8lSXdmzX0vG2ROj-42" value="" style="sketch=0;html=1;dashed=0;whitespace=wrap;fillColor=#2875E2;strokeColor=#ffffff;points=[[0.005,0.63,0],[0.1,0.2,0],[0.9,0.2,0],[0.5,0,0],[0.995,0.63,0],[0.72,0.99,0],[0.5,1,0],[0.28,0.99,0]];shape=mxgraph.kubernetes.icon;prIcon=secret" vertex="1" parent="1">
          <mxGeometry x="30" y="650" width="50" height="48" as="geometry" />
        </mxCell>
        <mxCell id="eb7Oq8lSXdmzX0vG2ROj-46" value="Scans for&lt;br&gt;ingress hosts" style="text;html=1;align=center;verticalAlign=middle;resizable=0;points=[];autosize=1;strokeColor=none;fillColor=none;" vertex="1" parent="1">
          <mxGeometry x="135" y="500" width="90" height="40" as="geometry" />
        </mxCell>
        <mxCell id="eb7Oq8lSXdmzX0vG2ROj-47" value="Generates a certificate &lt;br&gt;for ingress host&amp;nbsp;" style="text;html=1;align=center;verticalAlign=middle;resizable=0;points=[];autosize=1;strokeColor=none;fillColor=none;" vertex="1" parent="1">
          <mxGeometry x="-50" y="466" width="140" height="40" as="geometry" />
        </mxCell>
        <mxCell id="eb7Oq8lSXdmzX0vG2ROj-52" value="&lt;b&gt;Secret&lt;/b&gt;&lt;br&gt;web-converter-test-ca-key-pair" style="text;html=1;align=center;verticalAlign=middle;resizable=0;points=[];autosize=1;strokeColor=none;fillColor=none;" vertex="1" parent="1">
          <mxGeometry x="-40" y="710" width="190" height="40" as="geometry" />
        </mxCell>
        <mxCell id="eb7Oq8lSXdmzX0vG2ROj-53" value="&lt;b&gt;Certificate&lt;br&gt;&lt;/b&gt;web-converter-test-ca-key-pair&lt;b&gt;&lt;br&gt;&lt;/b&gt;" style="text;html=1;align=center;verticalAlign=middle;resizable=0;points=[];autosize=1;strokeColor=none;fillColor=none;" vertex="1" parent="1">
          <mxGeometry x="-240" y="590" width="190" height="40" as="geometry" />
        </mxCell>
        <mxCell id="eb7Oq8lSXdmzX0vG2ROj-54" value="Scan for &lt;br&gt;ingress hosts" style="text;html=1;align=center;verticalAlign=middle;resizable=0;points=[];autosize=1;strokeColor=none;fillColor=none;" vertex="1" parent="1">
          <mxGeometry x="330" y="520" width="90" height="40" as="geometry" />
        </mxCell>
        <mxCell id="eb7Oq8lSXdmzX0vG2ROj-55" value="Add DNS record for host&lt;br&gt;&lt;b&gt;webconverter-main&lt;/b&gt;" style="text;html=1;align=center;verticalAlign=middle;resizable=0;points=[];autosize=1;strokeColor=none;fillColor=none;" vertex="1" parent="1">
          <mxGeometry x="540" y="380.5" width="150" height="40" as="geometry" />
        </mxCell>
        <mxCell id="eb7Oq8lSXdmzX0vG2ROj-64" style="edgeStyle=orthogonalEdgeStyle;rounded=0;orthogonalLoop=1;jettySize=auto;html=1;startArrow=classic;startFill=1;" edge="1" parent="1" source="eb7Oq8lSXdmzX0vG2ROj-58">
          <mxGeometry relative="1" as="geometry">
            <mxPoint x="860" y="599.9999999999998" as="targetPoint" />
          </mxGeometry>
        </mxCell>
        <mxCell id="eb7Oq8lSXdmzX0vG2ROj-66" style="edgeStyle=orthogonalEdgeStyle;rounded=0;orthogonalLoop=1;jettySize=auto;html=1;exitX=0.5;exitY=0;exitDx=0;exitDy=0;exitPerimeter=0;entryX=0.995;entryY=0.63;entryDx=0;entryDy=0;entryPerimeter=0;dashed=1;" edge="1" parent="1" source="eb7Oq8lSXdmzX0vG2ROj-58" target="eb7Oq8lSXdmzX0vG2ROj-26">
          <mxGeometry relative="1" as="geometry" />
        </mxCell>
        <mxCell id="eb7Oq8lSXdmzX0vG2ROj-58" value="&lt;b&gt;Client App&lt;/b&gt;" style="sketch=0;aspect=fixed;pointerEvents=1;shadow=0;dashed=0;html=1;strokeColor=none;labelPosition=center;verticalLabelPosition=bottom;verticalAlign=top;align=center;fillColor=#00188D;shape=mxgraph.mscae.enterprise.client_application" vertex="1" parent="1">
          <mxGeometry x="674.9999999999999" y="1070" width="96.88" height="62" as="geometry" />
        </mxCell>
        <mxCell id="eb7Oq8lSXdmzX0vG2ROj-61" value="&lt;span style=&quot;font-weight: normal;&quot;&gt;get https://webconverter-main.aks-service.k.eod.systems&lt;/span&gt;" style="text;html=1;align=center;verticalAlign=middle;resizable=0;points=[];autosize=1;strokeColor=none;fillColor=none;fontStyle=1;rotation=-90;" vertex="1" parent="1">
          <mxGeometry x="710" y="830" width="330" height="30" as="geometry" />
        </mxCell>
        <mxCell id="eb7Oq8lSXdmzX0vG2ROj-62" value="" style="sketch=0;aspect=fixed;html=1;points=[];align=center;image;fontSize=12;image=img/lib/mscae/DNS_Private_Zones.svg;" vertex="1" parent="1">
          <mxGeometry x="710" y="380.5" width="90" height="90" as="geometry" />
        </mxCell>
        <mxCell id="eb7Oq8lSXdmzX0vG2ROj-65" style="edgeStyle=orthogonalEdgeStyle;rounded=0;orthogonalLoop=1;jettySize=auto;html=1;exitX=0.5;exitY=0;exitDx=0;exitDy=0;exitPerimeter=0;dashed=1;startArrow=classic;startFill=1;" edge="1" parent="1" source="eb7Oq8lSXdmzX0vG2ROj-63">
          <mxGeometry relative="1" as="geometry">
            <mxPoint x="800" y="420" as="targetPoint" />
            <Array as="points">
              <mxPoint x="860" y="420" />
              <mxPoint x="800" y="420" />
            </Array>
          </mxGeometry>
        </mxCell>
        <mxCell id="eb7Oq8lSXdmzX0vG2ROj-63" value="&lt;b&gt;Public DNS&lt;/b&gt;" style="fillColor=#28A8E0;verticalLabelPosition=bottom;sketch=0;html=1;strokeColor=#ffffff;verticalAlign=top;align=center;points=[[0.145,0.145,0],[0.5,0,0],[0.855,0.145,0],[1,0.5,0],[0.855,0.855,0],[0.5,1,0],[0.145,0.855,0],[0,0.5,0]];pointerEvents=1;shape=mxgraph.cisco_safe.compositeIcon;bgIcon=ellipse;resIcon=mxgraph.cisco_safe.capability.dns;" vertex="1" parent="1">
          <mxGeometry x="820" y="500.5" width="80" height="79" as="geometry" />
        </mxCell>
        <mxCell id="eb7Oq8lSXdmzX0vG2ROj-67" value="&lt;span style=&quot;font-weight: normal;&quot;&gt;get https://webconverter-main.aks-service.k.eod.systems&lt;/span&gt;" style="text;html=1;align=center;verticalAlign=middle;resizable=0;points=[];autosize=1;strokeColor=none;fillColor=none;fontStyle=1;rotation=-90;" vertex="1" parent="1">
          <mxGeometry x="540" y="870" width="330" height="30" as="geometry" />
        </mxCell>
        <mxCell id="eb7Oq8lSXdmzX0vG2ROj-70" value="" style="sketch=0;aspect=fixed;pointerEvents=1;shadow=0;dashed=0;html=1;strokeColor=none;labelPosition=center;verticalLabelPosition=bottom;verticalAlign=top;align=center;fillColor=#00188D;shape=mxgraph.azure.certificate" vertex="1" parent="1">
          <mxGeometry x="-80" y="574" width="57.5" height="46" as="geometry" />
        </mxCell>
      </root>
    </mxGraphModel>
  </diagram>
</mxfile>
